<svg xmlns="http://www.w3.org/2000/svg" xmlns:xlink="http://www.w3.org/1999/xlink" viewBox="0 0 300 300"><defs><style>.cls-1{isolation:isolate;}.cls-2{opacity:0.35;fill:url(#radial-gradient);}.cls-2,.cls-3,.cls-5,.cls-6{mix-blend-mode:screen;}.cls-3{fill:url(#radial-gradient-2);}.cls-4,.cls-5{fill:none;}.cls-5{stroke:#fff;stroke-miterlimit:10;stroke-width:2px;opacity:0.03;}.cls-6{fill:url(#radial-gradient-3);}</style><radialGradient id="radial-gradient" cx="147.07" cy="150.17" r="144.6" gradientTransform="translate(7.89)" gradientUnits="userSpaceOnUse"><stop offset="0.1" stop-color="#7e2d72"/><stop offset="0.21" stop-color="#5f2256"/><stop offset="0.36" stop-color="#3d1637"/><stop offset="0.52" stop-color="#220c1f"/><stop offset="0.67" stop-color="#0f050e"/><stop offset="0.83" stop-color="#040103"/><stop offset="1"/></radialGradient><radialGradient id="radial-gradient-2" cx="46.83" cy="137.97" r="53.86" gradientTransform="translate(7.89)" gradientUnits="userSpaceOnUse"><stop offset="0" stop-color="#cae095"/><stop offset="0.06" stop-color="#a8ba7c"/><stop offset="0.14" stop-color="#818f5f"/><stop offset="0.22" stop-color="#5e6845"/><stop offset="0.31" stop-color="#414830"/><stop offset="0.4" stop-color="#292e1e"/><stop offset="0.5" stop-color="#171911"/><stop offset="0.62" stop-color="#0a0b07"/><stop offset="0.76" stop-color="#020302"/><stop offset="1"/></radialGradient><radialGradient id="radial-gradient-3" cx="109.52" cy="145.6" r="51.96" gradientTransform="translate(7.89)" gradientUnits="userSpaceOnUse"><stop offset="0.1" stop-color="#a23150"/><stop offset="0.17" stop-color="#892944"/><stop offset="0.3" stop-color="#5f1d2f"/><stop offset="0.43" stop-color="#3d121e"/><stop offset="0.57" stop-color="#220a11"/><stop offset="0.71" stop-color="#0f0507"/><stop offset="0.85" stop-color="#040102"/><stop offset="1"/></radialGradient></defs><title>elem4</title><g class="cls-1"><g id="Layer_1" data-name="Layer 1"><ellipse class="cls-2" cx="155.2" cy="150.17" rx="144.83" ry="144.6"/><ellipse class="cls-3" cx="54.8" cy="137.97" rx="53.95" ry="53.86"/><line class="cls-4" x1="-2241.89" y1="-141" x2="2044.76" y2="379.69"/><polyline class="cls-5" points="-2241.89 -141 -1155.82 -2245.64 -2241.89 -141 -3327.95 1963.64 -2241.89 -141 -133.84 943.31 -2241.89 -141 -4349.94 -1225.31 -2241.89 -141 258.56 -920.99 -2241.89 -141 -4742.33 638.99 -2241.89 -141 -1460.63 2355.41 -2241.89 -141 -3023.14 -2637.41 -2241.89 -141 -1343.27 -574.07 -2241.89 -141 -3140.5 292.07 -2241.89 -141 -1808.12 756.16 -2241.89 -141 -2675.65 -1038.16 -2241.89 -141 -1223.16 -1714.39 -2241.89 -141 -3260.62 1432.39 -2241.89 -141 -665.95 876.08 -2241.89 -141 -3817.82 -1158.08 -2241.89 -141 -777.59 -1000.05 -2241.89 -141 -3706.18 718.05 -2241.89 -141 -1381.45 1320.93 -2241.89 -141 -3102.33 -1602.93 -2241.89 -141 -675.91 -94.31 -2241.89 -141 -3807.86 -187.69 -2241.89 -141 -2288.66 1422.44 -2241.89 -141 -2195.12 -1704.44 -2241.89 -141 -737.68 -539.01 -2241.89 -141 -3746.09 257.01 -2241.89 -141 -1843.24 1360.78 -2241.89 -141 -2640.54 -1642.78 -2241.89 -141 -2119 -422.57 -2241.89 -141 -2364.77 140.57 -2241.89 -141 -1959.86 -18.31 -2241.89 -141 -2523.91 -263.69 -2241.89 -141 -1017.99 -283.58 -2241.89 -141 -3465.78 1.58 -2241.89 -141 -2099.07 1080.91 -2241.89 -141 -2384.7 -1362.91 -2241.89 -141 -749.57 -265.58 -2241.89 -141 -3734.2 -16.42 -2241.89 -141 -2117.11 1348.9 -2241.89 -141 -2366.67 -1630.9 -2241.89 -141 -2171.99 -194.25 -2241.89 -141 -2311.78 -87.75 -2241.89 -141 -2188.55 -71.22 -2241.89 -141 -2295.22 -210.78 -2241.89 -141 -1868.43 -539.28 -2241.89 -141 -2615.34 257.28 -2241.89 -141 -1842.96 231.85 -2241.89 -141 -2640.81 -513.85 -2241.89 -141 -1794.2 -815.99 -2241.89 -141 -2689.57 533.99 -2241.89 -141 -1565.8 305.96 -2241.89 -141 -2917.97 -587.96 -2241.89 -141 -1402.79 -1018.52 -2241.89 -141 -3080.98 736.52 -2241.89 -141 -1362.95 696.74 -2241.89 -141 -3120.82 -978.74 -2241.89 -141 -647.45 -1799.04 -2241.89 -141 -3836.33 1517.04 -2241.89 -141 -581.17 1450.86 -2241.89 -141 -3902.61 -1732.86"/><ellipse class="cls-6" cx="117.59" cy="145.6" rx="52.04" ry="51.96"/></g></g></svg>