<svg xmlns="http://www.w3.org/2000/svg" xmlns:xlink="http://www.w3.org/1999/xlink" viewBox="0 0 150 150"><defs><style>.cls-1{isolation:isolate;}.cls-2,.cls-3,.cls-5,.cls-6{mix-blend-mode:screen;}.cls-2{fill:url(#radial-gradient);}.cls-3{opacity:0.2;fill:url(#radial-gradient-2);}.cls-4,.cls-6{fill:none;}.cls-5{opacity:0.5;fill:url(#radial-gradient-3);}.cls-6{stroke:#fff;stroke-miterlimit:10;stroke-width:2px;opacity:0.03;}</style><radialGradient id="radial-gradient" cx="75.16" cy="75.51" r="4.94" gradientUnits="userSpaceOnUse"><stop offset="0" stop-color="#cae095"/><stop offset="0.06" stop-color="#a8ba7c"/><stop offset="0.14" stop-color="#818f5f"/><stop offset="0.22" stop-color="#5e6845"/><stop offset="0.31" stop-color="#414830"/><stop offset="0.4" stop-color="#292e1e"/><stop offset="0.5" stop-color="#171911"/><stop offset="0.62" stop-color="#0a0b07"/><stop offset="0.76" stop-color="#020302"/><stop offset="1"/></radialGradient><radialGradient id="radial-gradient-2" cx="92.46" cy="75.35" r="37.08" gradientUnits="userSpaceOnUse"><stop offset="0.05"/><stop offset="0.09" stop-color="#030904"/><stop offset="0.3" stop-color="#133315"/><stop offset="0.48" stop-color="#1f5222"/><stop offset="0.64" stop-color="#256529"/><stop offset="0.75" stop-color="#286c2c"/><stop offset="0.79" stop-color="#4c6c19"/><stop offset="0.84" stop-color="#6e6b07"/><stop offset="0.86" stop-color="#7b6b00"/><stop offset="0.89" stop-color="#776800"/><stop offset="0.91" stop-color="#6d5e00"/><stop offset="0.94" stop-color="#5a4f00"/><stop offset="0.96" stop-color="#413800"/><stop offset="0.98" stop-color="#201c00"/><stop offset="1"/></radialGradient><radialGradient id="radial-gradient-3" cx="75.16" cy="75.51" r="74.16" gradientUnits="userSpaceOnUse"><stop offset="0.64"/><stop offset="0.72" stop-color="#000200"/><stop offset="0.75" stop-color="#000902"/><stop offset="0.77" stop-color="#001405"/><stop offset="0.78" stop-color="#002509"/><stop offset="0.8" stop-color="#003b0e"/><stop offset="0.8" stop-color="#004510"/><stop offset="0.82" stop-color="#182809"/><stop offset="0.83" stop-color="#2b1204"/><stop offset="0.85" stop-color="#360501"/><stop offset="0.86" stop-color="#3a0000"/><stop offset="0.87" stop-color="#250000"/><stop offset="0.89" stop-color="#140000"/><stop offset="0.9" stop-color="#090000"/><stop offset="0.93" stop-color="#020000"/><stop offset="1"/></radialGradient></defs><title>elem2</title><g class="cls-1"><g id="Layer_2" data-name="Layer 2"><circle class="cls-2" cx="75.16" cy="75.51" r="4.94"/><circle class="cls-3" cx="92.46" cy="75.35" r="37.08"/><line class="cls-4" x1="421.18" y1="72.36" x2="75.16" y2="75.51"/><circle class="cls-5" cx="75.16" cy="75.51" r="74.16"/><polyline class="cls-6" points="-95.15 75.5 -22.62 92.6 -95.15 75.5 -167.67 58.4 -95.15 75.5 -112.25 148.03 -95.15 75.5 -78.04 2.98 -95.15 75.5 -5.69 158.62 -95.15 75.5 -184.6 -7.62 -95.15 75.5 -178.27 164.96 -95.15 75.5 -12.03 -13.96 -95.15 75.5 -96.74 190 -95.15 75.5 -93.55 -39 -95.15 75.5 -209.65 73.91 -95.15 75.5 19.35 77.09 -95.15 75.5 -91.81 122 -95.15 75.5 -98.48 29 -95.15 75.5 -141.64 78.84 -95.15 75.5 -48.65 72.16 -95.15 75.5 -94.08 172.34 -95.15 75.5 -96.21 -21.34 -95.15 75.5 -191.98 76.57 -95.15 75.5 1.69 74.43 -95.15 75.5 -93.45 76.61 -95.15 75.5 -96.84 74.39 -95.15 75.5 -96.26 77.2 -95.15 75.5 -94.03 73.8 -95.15 75.5 -43.73 100.2 -95.15 75.5 -146.56 50.8 -95.15 75.5 -119.85 126.91 -95.15 75.5 -70.44 24.09 -95.15 75.5 -94.24 85.07 -95.15 75.5 -96.05 65.93 -95.15 75.5 -104.72 76.41 -95.15 75.5 -85.58 74.59 -95.15 75.5 -10.11 156.6 -95.15 75.5 -180.18 -5.6 -95.15 75.5 -176.25 160.53 -95.15 75.5 -14.04 -9.53 -95.15 75.5 -83.34 95.22 -95.15 75.5 -106.95 55.78 -95.15 75.5 -114.87 87.3 -95.15 75.5 -75.42 63.7 -95.15 75.5 -6.06 149.84 -95.15 75.5 -184.23 1.16 -95.15 75.5 -169.48 164.58 -95.15 75.5 -20.81 -13.58 -95.15 75.5 -90.73 106.86 -95.15 75.5 -99.56 44.15 -95.15 75.5 -126.5 79.91 -95.15 75.5 -63.79 71.09 -95.15 75.5 -7.27 138.96 -95.15 75.5 -183.03 12.04 -95.15 75.5 -158.6 163.38 -95.15 75.5 -31.69 -12.38 -95.15 75.5 -78.61 113.55 -95.15 75.5 -111.69 37.45 -95.15 75.5 -133.2 92.04 -95.15 75.5 -57.09 58.96 -95.15 75.5 -86.58 88.9 -95.15 75.5 -103.71 62.1 -95.15 75.5 -108.55 84.07 -95.15 75.5 -81.75 66.93"/><line class="cls-4" x1="-669.88" y1="-183.58" x2="269.85" y2="514.58"/><polyline class="cls-6" points="-669.88 -183.59 -1077.66 171.74 -669.88 -183.59 -262.1 -538.91 -669.88 -183.59 -1025.21 -591.37 -669.88 -183.59 -314.55 224.2 -669.88 -183.59 -875.52 -56.44 -669.88 -183.59 -464.25 -310.73 -669.88 -183.59 -797.03 -389.22 -669.88 -183.59 -542.73 22.05 -669.88 -183.59 -932.49 311.35 -669.88 -183.59 -407.27 -678.52 -669.88 -183.59 -1164.82 -446.2 -669.88 -183.59 -174.95 79.03 -669.88 -183.59 -802.91 215.34 -669.88 -183.59 -536.86 -582.51 -669.88 -183.59 -1068.8 -316.61 -669.88 -183.59 -270.96 -50.56 -669.88 -183.59 -839.62 201.21 -669.88 -183.59 -500.14 -568.38 -669.88 -183.59 -1054.67 -353.32 -669.88 -183.59 -285.09 -13.85 -669.88 -183.59 -1157.05 38.88 -669.88 -183.59 -182.71 -406.05 -669.88 -183.59 -892.35 -670.75 -669.88 -183.59 -447.41 303.59 -669.88 -183.59 -1038.17 147.25 -669.88 -183.59 -301.59 -514.42 -669.88 -183.59 -1000.72 -551.88 -669.88 -183.59 -339.05 184.71 -669.88 -183.59 -853.21 -115.42 -669.88 -183.59 -486.55 -251.75 -669.88 -183.59 -738.05 -366.92 -669.88 -183.59 -601.71 -0.25 -669.88 -183.59 -854.27 68.84 -669.88 -183.59 -485.5 -436.01 -669.88 -183.59 -922.31 -367.97 -669.88 -183.59 -417.45 0.8 -669.88 -183.59 -1055.12 210.72 -669.88 -183.59 -284.64 -577.88 -669.88 -183.59 -1064.18 -568.83 -669.88 -183.59 -275.58 201.66 -669.88 -183.59 -682.04 -181.08 -669.88 -183.59 -657.72 -186.09 -669.88 -183.59 -672.39 -195.74 -669.88 -183.59 -667.38 -171.43 -669.88 -183.59 -893.25 -16.48 -669.88 -183.59 -446.51 -350.69 -669.88 -183.59 -836.98 -406.96 -669.88 -183.59 -502.78 39.79 -669.88 -183.59 -1170.66 189.51 -669.88 -183.59 -169.1 -556.68 -669.88 -183.59 -1042.97 -684.37 -669.88 -183.59 -296.79 317.2 -669.88 -183.59 -969.87 -34.22 -669.88 -183.59 -369.89 -332.95 -669.88 -183.59 -819.25 -483.58 -669.88 -183.59 -520.51 116.41 -669.88 -183.59 -689.85 501.25 -669.88 -183.59 -649.91 -868.42 -669.88 -183.59 -1354.72 -203.56 -669.88 -183.59 14.96 -163.62"/></g></g></svg>