<svg xmlns="http://www.w3.org/2000/svg" xmlns:xlink="http://www.w3.org/1999/xlink" viewBox="0 0 150 150"><defs><style>.cls-1{isolation:isolate;}.cls-2{opacity:0.25;fill:url(#radial-gradient);}.cls-10,.cls-11,.cls-12,.cls-13,.cls-14,.cls-15,.cls-16,.cls-2,.cls-3,.cls-4,.cls-5,.cls-7,.cls-8,.cls-9{mix-blend-mode:screen;}.cls-3{fill:url(#radial-gradient-2);}.cls-4{fill:url(#radial-gradient-3);}.cls-5{opacity:0.2;fill:url(#radial-gradient-4);}.cls-10,.cls-6{fill:none;}.cls-7{opacity:0.15;fill:url(#radial-gradient-5);}.cls-11,.cls-8{opacity:0.5;}.cls-8{fill:url(#radial-gradient-6);}.cls-9{fill:url(#radial-gradient-7);}.cls-10{stroke:#fff;stroke-miterlimit:10;stroke-width:2px;opacity:0.03;}.cls-11{fill:url(#radial-gradient-8);}.cls-12{fill:url(#radial-gradient-9);}.cls-13{fill:url(#radial-gradient-10);}.cls-14{fill:url(#radial-gradient-11);}.cls-15{fill:url(#radial-gradient-12);}.cls-16{fill:url(#radial-gradient-13);}</style><radialGradient id="radial-gradient" cx="75.06" cy="75.29" r="74.02" gradientUnits="userSpaceOnUse"><stop offset="0.1"/><stop offset="0.15" stop-color="#191407"/><stop offset="0.21" stop-color="#2f260d"/><stop offset="0.27" stop-color="#403312"/><stop offset="0.36" stop-color="#4b3d16"/><stop offset="0.47" stop-color="#524217"/><stop offset="0.8" stop-color="#544418"/><stop offset="1"/></radialGradient><radialGradient id="radial-gradient-2" cx="73.97" cy="76.38" r="2.47" gradientUnits="userSpaceOnUse"><stop offset="0" stop-color="#cae095"/><stop offset="0.06" stop-color="#a8ba7c"/><stop offset="0.14" stop-color="#818f5f"/><stop offset="0.22" stop-color="#5e6845"/><stop offset="0.31" stop-color="#414830"/><stop offset="0.4" stop-color="#292e1e"/><stop offset="0.5" stop-color="#171911"/><stop offset="0.62" stop-color="#0a0b07"/><stop offset="0.76" stop-color="#020302"/><stop offset="1"/></radialGradient><radialGradient id="radial-gradient-3" cx="74.03" cy="76.33" r="2.47" xlink:href="#radial-gradient-2"/><radialGradient id="radial-gradient-4" cx="74.07" cy="76.29" r="18.51" gradientUnits="userSpaceOnUse"><stop offset="0.05"/><stop offset="0.09" stop-color="#030904"/><stop offset="0.3" stop-color="#133315"/><stop offset="0.48" stop-color="#1f5222"/><stop offset="0.64" stop-color="#256529"/><stop offset="0.75" stop-color="#286c2c"/><stop offset="0.79" stop-color="#4c6c19"/><stop offset="0.84" stop-color="#6e6b07"/><stop offset="0.86" stop-color="#7b6b00"/><stop offset="0.89" stop-color="#776800"/><stop offset="0.91" stop-color="#6d5e00"/><stop offset="0.94" stop-color="#5a4f00"/><stop offset="0.96" stop-color="#413800"/><stop offset="0.98" stop-color="#201c00"/><stop offset="1"/></radialGradient><radialGradient id="radial-gradient-5" cx="74.85" cy="75.5" r="49.35" gradientUnits="userSpaceOnUse"><stop offset="0" stop-color="#230000"/><stop offset="0.73" stop-color="#93432a"/><stop offset="1" stop-color="#230000"/></radialGradient><radialGradient id="radial-gradient-6" cx="74.85" cy="75.5" r="24.67" gradientUnits="userSpaceOnUse"><stop offset="0.15" stop-color="#fff"/><stop offset="0.21" stop-color="#e2d1d2"/><stop offset="0.29" stop-color="#bf9a9c"/><stop offset="0.36" stop-color="#a67276"/><stop offset="0.42" stop-color="#975a5e"/><stop offset="0.45" stop-color="#915155"/><stop offset="0.56" stop-color="#6c3638"/><stop offset="0.68" stop-color="#44191a"/><stop offset="0.79" stop-color="#2c0707"/><stop offset="0.85" stop-color="#230000"/><stop offset="0.86" stop-color="#270201"/><stop offset="0.86" stop-color="#340805"/><stop offset="0.87" stop-color="#48120b"/><stop offset="0.88" stop-color="#652114"/><stop offset="0.89" stop-color="#8b331f"/><stop offset="0.9" stop-color="#b8492d"/><stop offset="0.9" stop-color="#d65836"/><stop offset="0.9" stop-color="#c95232"/><stop offset="0.91" stop-color="#9d3c25"/><stop offset="0.93" stop-color="#782a1a"/><stop offset="0.94" stop-color="#591b10"/><stop offset="0.95" stop-color="#410f09"/><stop offset="0.97" stop-color="#300604"/><stop offset="0.98" stop-color="#260201"/><stop offset="1" stop-color="#230000"/></radialGradient><radialGradient id="radial-gradient-7" cx="74.85" cy="75.5" r="20.56" gradientUnits="userSpaceOnUse"><stop offset="0.15" stop-color="#fff"/><stop offset="0.28" stop-color="#c2c2c2"/><stop offset="0.43" stop-color="#888"/><stop offset="0.56" stop-color="#575757"/><stop offset="0.69" stop-color="#313131"/><stop offset="0.81" stop-color="#161616"/><stop offset="0.92" stop-color="#060606"/><stop offset="1"/></radialGradient><radialGradient id="radial-gradient-8" cx="74.03" cy="76.33" r="37.01" gradientUnits="userSpaceOnUse"><stop offset="0.64"/><stop offset="0.72" stop-color="#000200"/><stop offset="0.75" stop-color="#000902"/><stop offset="0.77" stop-color="#001405"/><stop offset="0.78" stop-color="#002509"/><stop offset="0.8" stop-color="#003b0e"/><stop offset="0.8" stop-color="#004510"/><stop offset="0.82" stop-color="#182809"/><stop offset="0.83" stop-color="#2b1204"/><stop offset="0.85" stop-color="#360501"/><stop offset="0.86" stop-color="#3a0000"/><stop offset="0.87" stop-color="#250000"/><stop offset="0.89" stop-color="#140000"/><stop offset="0.9" stop-color="#090000"/><stop offset="0.93" stop-color="#020000"/><stop offset="1"/></radialGradient><radialGradient id="radial-gradient-9" cx="74.77" cy="75.58" r="1.2" gradientUnits="userSpaceOnUse"><stop offset="0.1"/><stop offset="0.27" stop-color="#000f13"/><stop offset="0.5" stop-color="#001f26"/><stop offset="0.74" stop-color="#002831"/><stop offset="1" stop-color="#002b35"/></radialGradient><radialGradient id="radial-gradient-10" cx="74.23" cy="76.13" r="4.27" gradientUnits="userSpaceOnUse"><stop offset="0.1"/><stop offset="0.28" stop-color="#090000"/><stop offset="0.63" stop-color="#140000"/><stop offset="1" stop-color="#180000"/></radialGradient><radialGradient id="radial-gradient-11" cx="74.42" cy="75.93" r="5.92" gradientUnits="userSpaceOnUse"><stop offset="0.1" stop-color="#180000"/><stop offset="0.28" stop-color="#0f0000"/><stop offset="0.63" stop-color="#040000"/><stop offset="1"/></radialGradient><radialGradient id="radial-gradient-12" cx="74.8" cy="75.55" r="2.67" gradientUnits="userSpaceOnUse"><stop offset="0.1"/><stop offset="0.26" stop-color="#07191f"/><stop offset="0.44" stop-color="#0d2e3a"/><stop offset="0.62" stop-color="#123d4d"/><stop offset="0.8" stop-color="#144658"/><stop offset="1" stop-color="#15495c"/></radialGradient><radialGradient id="radial-gradient-13" cx="74.19" cy="76.16" r="8.86" gradientUnits="userSpaceOnUse"><stop offset="0.1" stop-color="#002b35"/><stop offset="0.27" stop-color="#001c22"/><stop offset="0.5" stop-color="#000c0f"/><stop offset="0.74" stop-color="#000304"/><stop offset="1"/></radialGradient></defs><title>elem1</title><g class="cls-1"><g id="Layer_2" data-name="Layer 2"><circle class="cls-2" cx="75.06" cy="75.29" r="74.02"/><circle class="cls-3" cx="73.97" cy="76.38" r="2.47"/><circle class="cls-4" cx="74.03" cy="76.33" r="2.47"/><circle class="cls-5" cx="74.07" cy="76.29" r="18.51"/><line class="cls-6" x1="74.85" y1="75.5" x2="74.03" y2="76.33"/><circle class="cls-7" cx="74.85" cy="75.5" r="49.35"/><circle class="cls-8" cx="74.85" cy="75.5" r="24.67"/><circle class="cls-9" cx="74.85" cy="75.5" r="20.56"/><polyline class="cls-10" points="74.85 75.5 147.38 92.6 74.85 75.5 2.33 58.4 74.85 75.5 57.75 148.03 74.85 75.5 91.96 2.98 74.85 75.5 164.31 158.62 74.85 75.5 -14.6 -7.62 74.85 75.5 -8.27 164.96 74.85 75.5 157.97 -13.96 74.85 75.5 73.26 190 74.85 75.5 76.45 -39 74.85 75.5 -39.65 73.91 74.85 75.5 189.35 77.09 74.85 75.5 78.19 122 74.85 75.5 71.52 29 74.85 75.5 28.36 78.84 74.85 75.5 121.35 72.16 74.85 75.5 75.92 172.34 74.85 75.5 73.79 -21.34 74.85 75.5 -21.98 76.57 74.85 75.5 171.69 74.43 74.85 75.5 76.55 76.61 74.85 75.5 73.16 74.39 74.85 75.5 73.74 77.2 74.85 75.5 75.97 73.8 74.85 75.5 126.27 100.2 74.85 75.5 23.44 50.8 74.85 75.5 50.15 126.91 74.85 75.5 99.56 24.09 74.85 75.5 75.76 85.07 74.85 75.5 73.95 65.93 74.85 75.5 65.28 76.41 74.85 75.5 84.42 74.59 74.85 75.5 159.89 156.6 74.85 75.5 -10.18 -5.6 74.85 75.5 -6.25 160.53 74.85 75.5 155.96 -9.53 74.85 75.5 86.66 95.22 74.85 75.5 63.05 55.78 74.85 75.5 55.13 87.3 74.85 75.5 94.58 63.7 74.85 75.5 163.94 149.84 74.85 75.5 -14.23 1.16 74.85 75.5 0.52 164.58 74.85 75.5 149.19 -13.58 74.85 75.5 79.27 106.86 74.85 75.5 70.44 44.15 74.85 75.5 43.5 79.91 74.85 75.5 106.21 71.09 74.85 75.5 162.73 138.96 74.85 75.5 -13.03 12.04 74.85 75.5 11.4 163.38 74.85 75.5 138.31 -12.38 74.85 75.5 91.39 113.55 74.85 75.5 58.31 37.45 74.85 75.5 36.8 92.04 74.85 75.5 112.91 58.96 74.85 75.5 83.42 88.9 74.85 75.5 66.29 62.1 74.85 75.5 61.45 84.07 74.85 75.5 88.25 66.93"/><circle class="cls-11" cx="74.03" cy="76.33" r="37.01"/><circle class="cls-12" cx="74.77" cy="75.58" r="1.2"/><circle class="cls-13" cx="74.23" cy="76.13" r="4.27"/><circle class="cls-14" cx="74.42" cy="75.93" r="5.92"/><circle class="cls-15" cx="74.8" cy="75.55" r="2.67"/><circle class="cls-16" cx="74.19" cy="76.16" r="8.86"/><line class="cls-6" x1="-499.88" y1="-183.58" x2="439.85" y2="514.58"/><polyline class="cls-10" points="-499.88 -183.59 -907.66 171.74 -499.88 -183.59 -92.1 -538.91 -499.88 -183.59 -855.21 -591.37 -499.88 -183.59 -144.55 224.2 -499.88 -183.59 -705.52 -56.44 -499.88 -183.59 -294.25 -310.73 -499.88 -183.59 -627.03 -389.22 -499.88 -183.59 -372.73 22.05 -499.88 -183.59 -762.49 311.35 -499.88 -183.59 -237.27 -678.52 -499.88 -183.59 -994.82 -446.2 -499.88 -183.59 -4.95 79.03 -499.88 -183.59 -632.91 215.34 -499.88 -183.59 -366.86 -582.51 -499.88 -183.59 -898.8 -316.61 -499.88 -183.59 -100.96 -50.56 -499.88 -183.59 -669.62 201.21 -499.88 -183.59 -330.14 -568.38 -499.88 -183.59 -884.67 -353.32 -499.88 -183.59 -115.09 -13.85 -499.88 -183.59 -987.05 38.88 -499.88 -183.59 -12.71 -406.05 -499.88 -183.59 -722.35 -670.75 -499.88 -183.59 -277.41 303.59 -499.88 -183.59 -868.17 147.25 -499.88 -183.59 -131.59 -514.42 -499.88 -183.59 -830.72 -551.88 -499.88 -183.59 -169.05 184.71 -499.88 -183.59 -683.21 -115.42 -499.88 -183.59 -316.55 -251.75 -499.88 -183.59 -568.05 -366.92 -499.88 -183.59 -431.71 -0.25 -499.88 -183.59 -684.27 68.84 -499.88 -183.59 -315.5 -436.01 -499.88 -183.59 -752.31 -367.97 -499.88 -183.59 -247.46 0.8 -499.88 -183.59 -885.12 210.72 -499.88 -183.59 -114.64 -577.88 -499.88 -183.59 -894.18 -568.83 -499.88 -183.59 -105.58 201.66 -499.88 -183.59 -512.04 -181.08 -499.88 -183.59 -487.72 -186.09 -499.88 -183.59 -502.39 -195.74 -499.88 -183.59 -497.38 -171.43 -499.88 -183.59 -723.25 -16.48 -499.88 -183.59 -276.51 -350.69 -499.88 -183.59 -666.98 -406.96 -499.88 -183.59 -332.78 39.79 -499.88 -183.59 -1000.66 189.51 -499.88 -183.59 0.9 -556.68 -499.88 -183.59 -872.97 -684.37 -499.88 -183.59 -126.79 317.2 -499.88 -183.59 -799.87 -34.22 -499.88 -183.59 -199.89 -332.95 -499.88 -183.59 -649.25 -483.58 -499.88 -183.59 -350.51 116.41 -499.88 -183.59 -519.85 501.25 -499.88 -183.59 -479.91 -868.42 -499.88 -183.59 -1184.72 -203.56 -499.88 -183.59 184.96 -163.62"/></g></g></svg>