<svg xmlns="http://www.w3.org/2000/svg" xmlns:xlink="http://www.w3.org/1999/xlink" viewBox="0 0 150 150"><defs><style>.cls-1{isolation:isolate;}.cls-2,.cls-3{fill:none;}.cls-2{stroke:#fff;stroke-miterlimit:10;stroke-width:2px;opacity:0.03;}.cls-2,.cls-4,.cls-5{mix-blend-mode:screen;}.cls-4{fill:url(#radial-gradient);}.cls-5{fill:url(#radial-gradient-2);}</style><radialGradient id="radial-gradient" cx="-358.66" cy="159.77" r="69.48" gradientTransform="translate(285.36 409.44) rotate(82.17)" gradientUnits="userSpaceOnUse"><stop offset="0.1"/><stop offset="0.22" stop-color="#192222"/><stop offset="0.37" stop-color="#324444"/><stop offset="0.52" stop-color="#455e5f"/><stop offset="0.67" stop-color="#537172"/><stop offset="0.83" stop-color="#5b7c7d"/><stop offset="1" stop-color="#5e8081"/></radialGradient><radialGradient id="radial-gradient-2" cx="-391.84" cy="160.1" r="50.36" gradientTransform="translate(263.57 422.48) rotate(82.17)" gradientUnits="userSpaceOnUse"><stop offset="0.1"/><stop offset="0.17" stop-color="#100f10"/><stop offset="0.32" stop-color="#302f32"/><stop offset="0.49" stop-color="#4a474d"/><stop offset="0.65" stop-color="#5c5960"/><stop offset="0.82" stop-color="#67646b"/><stop offset="1" stop-color="#6b676f"/></radialGradient></defs><title>elem3</title><g class="cls-1"><g id="Layer_2" data-name="Layer 2"><polyline class="cls-2" points="74.85 -94.5 147.38 -77.4 74.85 -94.5 2.33 -111.6 74.85 -94.5 57.75 -21.98 74.85 -94.5 91.96 -167.03 74.85 -94.5 164.31 -11.38 74.85 -94.5 -14.6 -177.62 74.85 -94.5 -8.27 -5.04 74.85 -94.5 157.97 -183.96 74.85 -94.5 73.26 20 74.85 -94.5 76.45 -209 74.85 -94.5 -39.65 -96.09 74.85 -94.5 189.35 -92.91 74.85 -94.5 78.19 -48 74.85 -94.5 71.52 -141 74.85 -94.5 28.36 -91.16 74.85 -94.5 121.35 -97.84 74.85 -94.5 75.92 2.34 74.85 -94.5 73.79 -191.34 74.85 -94.5 -21.98 -93.43 74.85 -94.5 171.69 -95.57 74.85 -94.5 76.55 -93.39 74.85 -94.5 73.16 -95.61 74.85 -94.5 73.74 -92.8 74.85 -94.5 75.97 -96.2 74.85 -94.5 126.27 -69.8 74.85 -94.5 23.44 -119.2 74.85 -94.5 50.15 -43.09 74.85 -94.5 99.56 -145.91 74.85 -94.5 75.76 -84.93 74.85 -94.5 73.95 -104.07 74.85 -94.5 65.28 -93.59 74.85 -94.5 84.42 -95.41 74.85 -94.5 159.89 -13.4 74.85 -94.5 -10.18 -175.6 74.85 -94.5 -6.25 -9.47 74.85 -94.5 155.96 -179.53 74.85 -94.5 86.66 -74.78 74.85 -94.5 63.05 -114.22 74.85 -94.5 55.13 -82.7 74.85 -94.5 94.58 -106.3 74.85 -94.5 163.94 -20.16 74.85 -94.5 -14.23 -168.84 74.85 -94.5 0.52 -5.42 74.85 -94.5 149.19 -183.58 74.85 -94.5 79.27 -63.15 74.85 -94.5 70.44 -125.86 74.85 -94.5 43.5 -90.09 74.85 -94.5 106.21 -98.91 74.85 -94.5 162.73 -31.04 74.85 -94.5 -13.03 -157.96 74.85 -94.5 11.4 -6.62 74.85 -94.5 138.31 -182.38 74.85 -94.5 91.39 -56.45 74.85 -94.5 58.31 -132.55 74.85 -94.5 36.8 -77.96 74.85 -94.5 112.91 -111.04 74.85 -94.5 83.42 -81.1 74.85 -94.5 66.29 -107.9 74.85 -94.5 61.45 -85.93 74.85 -94.5 88.25 -103.07"/><line class="cls-3" x1="-499.88" y1="-353.58" x2="439.85" y2="344.58"/><polyline class="cls-2" points="-499.88 -353.58 -907.66 1.74 -499.88 -353.58 -92.1 -708.91 -499.88 -353.58 -855.21 -761.37 -499.88 -353.58 -144.55 54.2 -499.88 -353.58 -705.52 -226.44 -499.88 -353.58 -294.25 -480.73 -499.88 -353.58 -627.03 -559.22 -499.88 -353.58 -372.73 -147.95 -499.88 -353.58 -762.49 141.35 -499.88 -353.58 -237.27 -848.52 -499.88 -353.58 -994.82 -616.2 -499.88 -353.58 -4.95 -90.97 -499.88 -353.58 -632.91 45.34 -499.88 -353.58 -366.86 -752.51 -499.88 -353.58 -898.8 -486.61 -499.88 -353.58 -100.96 -220.56 -499.88 -353.58 -669.62 31.21 -499.88 -353.58 -330.14 -738.38 -499.88 -353.58 -884.67 -523.32 -499.88 -353.58 -115.09 -183.85 -499.88 -353.58 -987.05 -131.12 -499.88 -353.58 -12.71 -576.05 -499.88 -353.58 -722.35 -840.75 -499.88 -353.58 -277.41 133.59 -499.88 -353.58 -868.17 -22.75 -499.88 -353.58 -131.59 -684.42 -499.88 -353.58 -830.72 -721.88 -499.88 -353.58 -169.05 14.71 -499.88 -353.58 -683.21 -285.42 -499.88 -353.58 -316.55 -421.75 -499.88 -353.58 -568.05 -536.91 -499.88 -353.58 -431.71 -170.25 -499.88 -353.58 -684.27 -101.16 -499.88 -353.58 -315.5 -606.01 -499.88 -353.58 -752.31 -537.97 -499.88 -353.58 -247.46 -169.2 -499.88 -353.58 -885.12 40.72 -499.88 -353.58 -114.64 -747.88 -499.88 -353.58 -894.18 -738.83 -499.88 -353.58 -105.58 31.66 -499.88 -353.58 -512.04 -351.08 -499.88 -353.58 -487.72 -356.09 -499.88 -353.58 -502.39 -365.74 -499.88 -353.58 -497.38 -341.43 -499.88 -353.58 -723.25 -186.48 -499.88 -353.58 -276.51 -520.68 -499.88 -353.58 -666.98 -576.96 -499.88 -353.58 -332.78 -130.21 -499.88 -353.58 -1000.66 19.51 -499.88 -353.58 0.9 -726.68 -499.88 -353.58 -872.97 -854.37 -499.88 -353.58 -126.79 147.2 -499.88 -353.58 -799.87 -204.22 -499.88 -353.58 -199.89 -502.95 -499.88 -353.58 -649.25 -653.58 -499.88 -353.58 -350.51 -53.59 -499.88 -353.58 -519.85 331.25 -499.88 -353.58 -479.91 -1038.42 -499.88 -353.58 -1184.72 -373.56 -499.88 -353.58 184.96 -333.62"/><circle class="cls-4" cx="78.21" cy="75.9" r="69.48" transform="translate(-30.76 77.53) rotate(-45)"/><circle class="cls-5" cx="51.57" cy="56.11" r="50.36" transform="translate(-24.57 52.9) rotate(-45)"/></g></g></svg>